<?xml version="1.0" encoding="UTF-8"?>
<svg xmlns="http://www.w3.org/2000/svg" xmlns:xlink="http://www.w3.org/1999/xlink" width="558px" height="397px" viewBox="0 0 558 397" version="1.1">
  <!-- Generator: Sketch 52.4 (67378) - http://www.bohemiancoding.com/sketch -->
  <title>AlbertGraphics</title>
  <desc>Created with Sketch.</desc>
  <g id="Home" stroke="none" stroke-width="1" fill="none" fill-rule="evenodd">
    <g id="homepage_Ipad_800" transform="translate(-242.000000, -53.000000)">
      <g id="Header">
        <g id="AlbertGraphics" transform="translate(242.000000, 53.000000)">
          <polygon id="Fill-2" fill="#FFFFFF" points="340 211 352 211 352 199 340 199"></polygon>
          <polygon id="Fill-3" fill="#394CFF" points="377 220 387 220 387 210 377 210"></polygon>
          <polygon id="Fill-4" fill="#394CFF" points="377 200 387 200 387 190 377 190"></polygon>
          <polygon id="Fill-5" fill="#00B4FF" points="369 210 379 210 379 200 369 200"></polygon>
          <polygon id="Fill-6" fill="#394CFF" points="439 205 449 205 449 195 439 195"></polygon>
          <polygon id="Fill-7" fill="#969696" points="422 173 432 173 432 163 422 163"></polygon>
          <polygon id="Fill-8" fill="#394CFF" points="303 221 313 221 313 211 303 211"></polygon>
          <polygon id="Fill-9" fill="#00B4FF" points="316 208 322 208 322 202 316 202"></polygon>
          <polygon id="Fill-10" fill="#394CFF" points="280 198 290 198 290 188 280 188"></polygon>
          <polygon id="Fill-11" fill="#394CFF" points="244 255 254 255 254 245 244 245"></polygon>
          <polygon id="Fill-12" fill="#00B4FF" points="332 248 342 248 342 238 332 238"></polygon>
          <polygon id="Fill-13" fill="#969696" points="351 248 361 248 361 238 351 238"></polygon>
          <polygon id="Fill-14" fill="#CEFF00" points="235 300 245 300 245 290 235 290"></polygon>
          <polygon id="Fill-15" fill="#00B4FF" points="344 236 349 236 349 231 344 231"></polygon>
          <polygon id="Fill-16" fill="#394CFF" points="290 292 300 292 300 282 290 282"></polygon>
          <polygon id="Fill-17" fill="#394CFF" points="415 318 425 318 425 308 415 308"></polygon>
          <polygon id="Fill-18" fill="#969696" points="368 330 378 330 378 320 368 320"></polygon>
          <polygon id="Fill-19" fill="#969696" points="351 173 361 173 361 163 351 163"></polygon>
          <polygon id="Fill-20" fill="#00B4FF" points="331 173 343 173 343 161 331 161"></polygon>
          <polygon id="Fill-21" fill="#00B4FF" points="344 180 350 180 350 174 344 174"></polygon>
          <polygon id="Fill-22" fill="#394CFF" points="369 183 379 183 379 173 369 173"></polygon>
          <polygon id="Fill-23" fill="#00B4FF" points="358 192 370 192 370 180 358 180"></polygon>
          <polygon id="Fill-24" fill="#00B4FF" points="322 229 332 229 332 219 322 219"></polygon>
          <polygon id="Fill-25" fill="#969696" points="305 246 324 246 324 227 305 227"></polygon>
          <polygon id="Fill-26" fill="#00B4FF" points="295 261 305 261 305 251 295 251"></polygon>
          <polygon id="Fill-27" fill="#00B4FF" points="357 231 371 231 371 216 357 216"></polygon>
          <polygon id="Fill-28" fill="#CEFF00" points="369 238 379 238 379 228 369 228"></polygon>
          <polygon id="Fill-29" fill="#969696" points="316 180 322 180 322 174 316 174"></polygon>
          <polygon id="Fill-30" fill="#394CFF" points="407 193 417 193 417 183 407 183"></polygon>
          <polygon id="Fill-31" fill="#00B4FF" points="322 191 332 191 332 181 322 181"></polygon>
          <polygon id="Fill-32" fill="#00B4FF" points="292 168 302 168 302 158 292 158"></polygon>
          <polygon id="Fill-33" fill="#394CFF" points="273 146 283 146 283 136 273 136"></polygon>
          <polygon id="Fill-34" fill="#394CFF" points="194 144 204 144 204 134 194 134"></polygon>
          <polygon id="Fill-35" fill="#394CFF" points="440 141 450 141 450 131 440 131"></polygon>
          <polygon id="Fill-36" fill="#969696" points="437 250 447 250 447 240 437 240"></polygon>
          <polygon id="Fill-37" fill="#394CFF" points="253 365 263 365 263 355 253 355"></polygon>
          <polygon id="Fill-38" fill="#394CFF" points="215 247 225 247 225 237 215 237"></polygon>
          <polygon id="Fill-39" fill="#394CFF" points="286 74 296 74 296 64 286 64"></polygon>
          <polygon id="Fill-40" fill="#CEFF00" points="327 54 337 54 337 44 327 44"></polygon>
          <polygon id="Fill-41" fill="#394CFF" points="367 140 377 140 377 130 367 130"></polygon>
          <polygon id="Fill-42" fill="#969696" points="388 105 398 105 398 95 388 95"></polygon>
          <polygon id="Fill-43" fill="#CEFF00" points="394 174 410 174 410 158 394 158"></polygon>
          <polygon id="Fill-44" fill="#00B4FF" points="403 271 413 271 413 261 403 261"></polygon>
          <polygon id="Fill-45" fill="#394CFF" points="458 174 468 174 468 164 458 164"></polygon>
          <polygon id="Fill-46" fill="#CEFF00" points="464 159 474 159 474 149 464 149"></polygon>
          <polygon id="Fill-47" fill="#394CFF" points="421 283 431 283 431 273 421 273"></polygon>
          <polygon id="Fill-48" fill="#394CFF" points="486 234 496 234 496 224 486 224"></polygon>
          <polygon id="Fill-49" fill="#394CFF" points="476 292 486 292 486 282 476 282"></polygon>
          <polygon id="Fill-50" fill="#394CFF" points="413 207 419 207 419 201 413 201"></polygon>
          <polygon id="Fill-51" fill="#CEFF00" points="267 220 277 220 277 210 267 210"></polygon>
          <polygon id="Fill-52" fill="#969696" points="298 200 311 200 311 187 298 187"></polygon>
          <polygon id="Fill-53" fill="#394CFF" points="385 274 390 274 390 269 385 269"></polygon>
          <polygon id="Fill-54" fill="#00B4FF" points="367 266 377 266 377 256 367 256"></polygon>
          <polygon id="Fill-55" fill="#DCDCDC" points="374 336 384 336 384 326 374 326"></polygon>
          <polygon id="Fill-56" fill="#00B4FF" points="210 138 220 138 220 128 210 128"></polygon>
          <polygon id="Fill-57" fill="#DCDCDC" points="360 76 370 76 370 66 360 66"></polygon>
          <polygon id="Fill-58" fill="#DCDCDC" points="411 98 421 98 421 88 411 88"></polygon>
          <polygon id="Fill-59" fill="#DCDCDC" points="280 36 286 36 286 30 280 30"></polygon>
          <polygon id="Fill-60" fill="#DCDCDC" points="388 155 398 155 398 145 388 145"></polygon>
          <polygon id="Fill-61" fill="#DCDCDC" points="377 112 387 112 387 102 377 102"></polygon>
          <polygon id="Fill-62" fill="#DCDCDC" points="439 280 449 280 449 270 439 270"></polygon>
          <polygon id="Fill-63" fill="#DCDCDC" points="415 266 425 266 425 256 415 256"></polygon>
          <polygon id="Fill-64" fill="#DCDCDC" points="432 223 442 223 442 213 432 213"></polygon>
          <polygon id="Fill-65" fill="#DCDCDC" points="417 145 431 145 431 130 417 130"></polygon>
          <polygon id="Fill-66" fill="#DCDCDC" points="461 200 468 200 468 193 461 193"></polygon>
          <polygon id="Fill-67" fill="#00B4FF" points="449 285 455 285 455 279 449 279"></polygon>
          <polygon id="Fill-68" fill="#DCDCDC" points="448 216 460 216 460 204 448 204"></polygon>
          <polygon id="Fill-69" fill="#00B4FF" points="418 247 428 247 428 237 418 237"></polygon>
          <polygon id="Fill-70" fill="#DCDCDC" points="444 160 454 160 454 150 444 150"></polygon>
          <polygon id="Fill-71" fill="#DCDCDC" points="210 264 220 264 220 254 210 254"></polygon>
          <polygon id="Fill-72" fill="#DCDCDC" points="446 186 456 186 456 176 446 176"></polygon>
          <polygon id="Fill-73" fill="#00B4FF" points="511 249 521 249 521 239 511 239"></polygon>
          <polygon id="Fill-74" fill="#DCDCDC" points="492 225 504 225 504 213 492 213"></polygon>
          <polygon id="Fill-75" fill="#DCDCDC" points="272 379 282 379 282 369 272 369"></polygon>
          <polygon id="Fill-76" fill="#DCDCDC" points="333 296 343 296 343 286 333 286"></polygon>
          <polygon id="Fill-77" fill="#DCDCDC" points="321 329 331 329 331 319 321 319"></polygon>
          <polygon id="Fill-78" fill="#DCDCDC" points="384 305 398 305 398 290 384 290"></polygon>
          <polygon id="Fill-79" fill="#00B4FF" points="398 313 408 313 408 303 398 303"></polygon>
          <polygon id="Fill-80" fill="#00B4FF" points="400 289 410 289 410 279 400 279"></polygon>
          <polygon id="Fill-81" fill="#DCDCDC" points="424 341 434 341 434 331 424 331"></polygon>
          <polygon id="Fill-82" fill="#00B4FF" points="444 325 454 325 454 315 444 315"></polygon>
          <polygon id="Fill-83" fill="#00B4FF" points="330 88 344 88 344 73 330 73"></polygon>
          <polygon id="Fill-84" fill="#DCDCDC" points="530 116 536 116 536 110 530 110"></polygon>
          <polygon id="Fill-85" fill="#DCDCDC" points="254 205 264 205 264 195 254 195"></polygon>
          <polygon id="Fill-86" fill="#DCDCDC" points="434 86 439 86 439 81 434 81"></polygon>
          <polygon id="Fill-87" fill="#DCDCDC" points="238 250 248 250 248 240 238 240"></polygon>
          <polygon id="Fill-88" fill="#CEFF00" points="243 330 257 330 257 315 243 315"></polygon>
          <polygon id="Fill-89" fill="#DCDCDC" points="250 283 264 283 264 268 250 268"></polygon>
          <polygon id="Fill-90" fill="#DCDCDC" points="179 329 189 329 189 319 179 319"></polygon>
          <polygon id="Fill-91" fill="#DCDCDC" points="272 310 282 310 282 300 272 300"></polygon>
          <polygon id="Fill-92" fill="#DCDCDC" points="242 233 256 233 256 219 242 219"></polygon>
          <polygon id="Fill-93" fill="#DCDCDC" points="338 118 348 118 348 108 338 108"></polygon>
          <polygon id="Fill-94" fill="#DCDCDC" points="303 108 313 108 313 98 303 98"></polygon>
          <polygon id="Fill-95" fill="#00B4FF" points="341 277 351 277 351 267 341 267"></polygon>
          <polygon id="Fill-96" fill="#DCDCDC" points="327 108 337 108 337 98 327 98"></polygon>
          <polygon id="Fill-97" fill="#DCDCDC" points="329 123 335 123 335 117 329 117"></polygon>
          <polygon id="Fill-98" fill="#DCDCDC" points="0 339 10 339 10 329 0 329"></polygon>
          <polygon id="Fill-99" fill="#DCDCDC" points="294 101 304 101 304 91 294 91"></polygon>
          <polygon id="Fill-100" fill="#DCDCDC" points="320 304 334 304 334 289 320 289"></polygon>
          <polygon id="Fill-101" fill="#DCDCDC" points="247 174 265 174 265 156 247 156"></polygon>
          <polygon id="Fill-102" fill="#DCDCDC" points="464 182 474 182 474 172 464 172"></polygon>
          <polygon id="Fill-103" fill="#DCDCDC" points="238 183 248 183 248 173 238 173"></polygon>
          <polygon id="Fill-104" fill="#CEFF00" points="332 356 342 356 342 346 332 346"></polygon>
          <polygon id="Fill-105" fill="#DCDCDC" points="251 138 261 138 261 128 251 128"></polygon>
          <polygon id="Fill-106" fill="#DCDCDC" points="451 136 461 136 461 126 451 126"></polygon>
          <polygon id="Fill-107" fill="#DCDCDC" points="380 163 390 163 390 153 380 153"></polygon>
          <polygon id="Fill-108" fill="#DCDCDC" points="398 266 408 266 408 256 398 256"></polygon>
          <polygon id="Fill-109" fill="#00B4FF" points="309 164 321 164 321 152 309 152"></polygon>
          <polygon id="Fill-110" fill="#DCDCDC" points="434 310 444 310 444 300 434 300"></polygon>
          <polygon id="Fill-111" fill="#394CFF" points="324 266 334 266 334 256 324 256"></polygon>
          <polygon id="Fill-112" fill="#394CFF" points="230 81 240 81 240 71 230 71"></polygon>
          <polygon id="Fill-113" fill="#DCDCDC" points="426 210 436 210 436 200 426 200"></polygon>
          <polygon id="Fill-114" fill="#00B4FF" points="432 177 442 177 442 167 432 167"></polygon>
          <polygon id="Fill-115" fill="#DCDCDC" points="411 244 421 244 421 234 411 234"></polygon>
          <polygon id="Fill-116" fill="#DCDCDC" points="480 328 490 328 490 318 480 318"></polygon>
          <polygon id="Fill-117" fill="#DCDCDC" points="404 227 418 227 418 212 404 212"></polygon>
          <polygon id="Fill-118" fill="#DCDCDC" points="290 138 300 138 300 128 290 128"></polygon>
          <polygon id="Fill-119" fill="#DCDCDC" points="288 276 297 276 297 267 288 267"></polygon>
          <polygon id="Fill-120" fill="#CEFF00" points="315 368 321 368 321 362 315 362"></polygon>
          <polygon id="Fill-121" fill="#DCDCDC" points="210 153 216 153 216 147 210 147"></polygon>
          <polygon id="Fill-122" fill="#00B4FF" points="178 177 188 177 188 167 178 167"></polygon>
          <polygon id="Fill-123" fill="#DCDCDC" points="283 224 288 224 288 219 283 219"></polygon>
          <polygon id="Fill-124" fill="#DCDCDC" points="271 264 276 264 276 259 271 259"></polygon>
          <polygon id="Fill-125" fill="#DCDCDC" points="243 113 255 113 255 101 243 101"></polygon>
          <polygon id="Fill-126" fill="#00B4FF" points="148 98 158 98 158 88 148 88"></polygon>
          <polygon id="Fill-127" fill="#DCDCDC" points="151 123 157 123 157 117 151 117"></polygon>
          <polygon id="Fill-128" fill="#CEFF00" points="181 121 187 121 187 115 181 115"></polygon>
          <polygon id="Fill-129" fill="#CEFF00" points="351 384 365 384 365 369 351 369"></polygon>
          <polygon id="Fill-130" fill="#DCDCDC" points="431 354 445 354 445 339 431 339"></polygon>
          <polygon id="Fill-131" fill="#DCDCDC" points="425 365 431 365 431 359 425 359"></polygon>
          <polygon id="Fill-132" fill="#DCDCDC" points="426 33 436 33 436 23 426 23"></polygon>
          <polygon id="Fill-133" fill="#394CFF" points="417 75 431 75 431 60 417 60"></polygon>
          <polygon id="Fill-134" fill="#00B4FF" points="160 10 170 10 170 0 160 0"></polygon>
          <polygon id="Fill-135" fill="#DCDCDC" points="474 397 488 397 488 383 474 383"></polygon>
          <polygon id="Fill-136" fill="#DCDCDC" points="376 369 382 369 382 363 376 363"></polygon>
          <polygon id="Fill-137" fill="#00B4FF" points="238 148 244 148 244 142 238 142"></polygon>
          <polygon id="Fill-138" fill="#00B4FF" points="52 80 58 80 58 74 52 74"></polygon>
          <polygon id="Fill-139" fill="#00B4FF" points="367 67 381 67 381 52 367 52"></polygon>
          <polygon id="Fill-140" fill="#394CFF" points="271 62 283 62 283 50 271 50"></polygon>
          <polygon id="Fill-141" fill="#394CFF" points="350 343 364 343 364 328 350 328"></polygon>
          <polygon id="Fill-142" fill="#00B4FF" points="304 52 314 52 314 42 304 42"></polygon>
          <polygon id="Fill-143" fill="#394CFF" points="427 115 441 115 441 100 427 100"></polygon>
          <polygon id="Fill-144" fill="#CEFF00" points="391 127 401 127 401 117 391 117"></polygon>
          <polygon id="Fill-145" fill="#00B4FF" points="371 92 381 92 381 82 371 82"></polygon>
          <polygon id="Fill-146" fill="#00B4FF" points="347 97 357 97 357 87 347 87"></polygon>
          <polygon id="Fill-147" fill="#394CFF" points="265 127 275 127 275 117 265 117"></polygon>
          <polygon id="Fill-148" fill="#00B4FF" points="227 175 237 175 237 165 227 165"></polygon>
          <polygon id="Fill-149" fill="#00B4FF" points="249 94 259 94 259 84 249 84"></polygon>
          <polygon id="Fill-150" fill="#394CFF" points="209 230 219 230 219 220 209 220"></polygon>
          <polygon id="Fill-151" fill="#394CFF" points="211 205 221 205 221 195 211 195"></polygon>
          <polygon id="Fill-152" fill="#394CFF" points="189 191 201 191 201 179 189 179"></polygon>
          <polygon id="Fill-153" fill="#00B4FF" points="226 216 232 216 232 210 226 210"></polygon>
          <polygon id="Fill-154" fill="#00B4FF" points="190 216 195 216 195 211 190 211"></polygon>
          <polygon id="Fill-155" fill="#394CFF" points="327 322 337 322 337 312 327 312"></polygon>
          <polygon id="Fill-156" fill="#969696" points="305 314 317 314 317 302 305 302"></polygon>
          <polygon id="Fill-157" fill="#00B4FF" points="280 321 287 321 287 314 280 314"></polygon>
          <polygon id="Fill-158" fill="#00B4FF" points="293 333 303 333 303 323 293 323"></polygon>
          <polygon id="Fill-159" fill="#00B4FF" points="392 343 402 343 402 333 392 333"></polygon>
          <polygon id="Fill-160" fill="#394CFF" points="459 243 471 243 471 231 459 231"></polygon>
          <polygon id="Fill-161" fill="#00B4FF" points="186 258 198 258 198 246 186 246"></polygon>
          <polygon id="Fill-162" fill="#00B4FF" points="108 279 120 279 120 267 108 267"></polygon>
          <polygon id="Fill-163" fill="#00B4FF" points="224 340 230 340 230 334 224 334"></polygon>
          <polygon id="Fill-164" fill="#00B4FF" points="163 343 169 343 169 337 163 337"></polygon>
          <polygon id="Fill-165" fill="#CEFF00" points="215 294 225 294 225 284 215 284"></polygon>
          <polygon id="Fill-166" fill="#00B4FF" points="461 102 471 102 471 92 461 92"></polygon>
          <polygon id="Fill-167" fill="#00B4FF" points="160 194 170 194 170 184 160 184"></polygon>
          <polygon id="Fill-168" fill="#394CFF" points="494 118 504 118 504 108 494 108"></polygon>
          <polygon id="Fill-169" fill="#00B4FF" points="488 150 494 150 494 144 488 144"></polygon>
          <polygon id="Fill-170" fill="#394CFF" points="500 187 514 187 514 173 500 173"></polygon>
          <polygon id="Fill-171" fill="#00B4FF" points="480 201 494 201 494 186 480 186"></polygon>
          <polygon id="Fill-172" fill="#00B4FF" points="548 310 558 310 558 300 548 300"></polygon>
          <polygon id="Fill-173" fill="#00B4FF" points="494 308 504 308 504 298 494 298"></polygon>
          <polygon id="Fill-174" fill="#CEFF00" points="179 235 186 235 186 228 179 228"></polygon>
          <polygon id="Fill-175" fill="#394CFF" points="427 234 439 234 439 222 427 222"></polygon>
          <polygon id="Fill-176" fill="#394CFF" points="368 111 375 111 375 104 368 104"></polygon>
          <polygon id="Fill-177" fill="#00B4FF" points="261 251 273 251 273 239 261 239"></polygon>
          <polygon id="Fill-178" fill="#394CFF" points="277 291 286 291 286 282 277 282"></polygon>
          <polygon id="Fill-179" fill="#394CFF" points="293 183 298 183 298 178 293 178"></polygon>
          <polygon id="Fill-180" fill="#394CFF" points="333 139 342 139 342 130 333 130"></polygon>
          <polygon id="Fill-181" fill="#394CFF" points="234 206 243 206 243 197 234 197"></polygon>
          <polygon id="Fill-182" fill="#CEFF00" points="352 285 366 285 366 271 352 271"></polygon>
          <polygon id="Fill-183" fill="#969696" points="387 215 396 215 396 206 387 206"></polygon>
          <polygon id="Fill-184" fill="#394CFF" points="289 241 301 241 301 229 289 229"></polygon>
          <polygon id="Fill-185" fill="#394CFF" points="293 213 300 213 300 206 293 206"></polygon>
          <polygon id="Fill-186" fill="#394CFF" points="374 150 379 150 379 145 374 145"></polygon>
          <polygon id="Fill-187" fill="#00B4FF" points="365 163 375 163 375 153 365 153"></polygon>
          <polygon id="Fill-188" fill="#969696" points="351 136 361 136 361 126 351 126"></polygon>
          <polygon id="Fill-189" fill="#00B4FF" points="341 155 355 155 355 140 341 140"></polygon>
          <polygon id="Fill-190" fill="#CEFF00" points="398 202 408 202 408 192 398 192"></polygon>
          <polygon id="Fill-191" fill="#969696" points="306 150 316 150 316 140 306 140"></polygon>
          <polygon id="Fill-192" fill="#969696" points="273 230 278 230 278 225 273 225"></polygon>
          <polygon id="Fill-193" fill="#DCDCDC" points="306 280 323 280 323 263 306 263"></polygon>
          <polygon id="Fill-194" fill="#394CFF" points="387 248 405 248 405 230 387 230"></polygon>
          <polygon id="Fill-195" fill="#969696" points="283 250 293 250 293 240 283 240"></polygon>
          <polygon id="Fill-196" fill="#00B4FF" points="384 187 394 187 394 177 384 177"></polygon>
          <polygon id="Fill-197" fill="#969696" points="407 151 417 151 417 141 407 141"></polygon>
          <polygon id="Fill-198" fill="#969696" points="270 182 282 182 282 170 270 170"></polygon>
          <polygon id="Fill-199" fill="#CEFF00" points="280 121 296 121 296 105 280 105"></polygon>
          <polygon id="Fill-200" fill="#00B4FF" points="382 230 392 230 392 220 382 220"></polygon>
          <polygon id="Fill-201" fill="#969696" points="361 303 371 303 371 293 361 293"></polygon>
        </g>
      </g>
    </g>
  </g>
</svg>
