<?xml version="1.0" encoding="UTF-8"?>
<svg xmlns="http://www.w3.org/2000/svg" width="525" height="1418" viewBox="0 0 525 1418" fill="none">
  <path fill-rule="evenodd" clip-rule="evenodd" d="M525 906H422V799H525V906Z" fill="#CEFF00"></path>
  <path fill-rule="evenodd" clip-rule="evenodd" d="M496 1418H405V1324H496V1418Z" fill="#001B56"></path>
  <path fill-rule="evenodd" clip-rule="evenodd" d="M213 1322.01H110V1218H213V1322.01Z" fill="#394CFF"></path>
  <path fill-rule="evenodd" clip-rule="evenodd" d="M422 1086H242V906H422V1086Z" fill="#DCDCDC"></path>
  <path fill-rule="evenodd" clip-rule="evenodd" d="M263 1218H213V1168H263V1218Z" fill="#DCDCDC"></path>
  <path fill-rule="evenodd" clip-rule="evenodd" d="M29 935H0V906H29V935Z" fill="#DCDCDC"></path>
  <path fill-rule="evenodd" clip-rule="evenodd" d="M0 209H202V0H0V209Z" fill="#394CFF"></path>
  <path fill-rule="evenodd" clip-rule="evenodd" d="M110 619H201V525H110V619Z" fill="#CEFF00"></path>
  <path fill-rule="evenodd" clip-rule="evenodd" d="M422 389.01H525V285H422V389.01Z" fill="#394CFF"></path>
  <path fill-rule="evenodd" clip-rule="evenodd" d="M202 285H277V210H202V285Z" fill="#DCDCDC"></path>
  <path fill-rule="evenodd" clip-rule="evenodd" d="M372 438H422V388H372V438Z" fill="#001B56"></path>
</svg>
