<?xml version="1.0" encoding="UTF-8"?>
<svg xmlns="http://www.w3.org/2000/svg" width="1400" height="1560" viewBox="0 0 1400 1560" fill="none">
  <rect width="1400" height="1560" fill="black"></rect>
  <path fill-rule="evenodd" clip-rule="evenodd" d="M237 28H255V10H237V28Z" fill="#CEFF00"></path>
  <path fill-rule="evenodd" clip-rule="evenodd" d="M94 936H109V921H94V936Z" fill="#CEFF00"></path>
  <path fill-rule="evenodd" clip-rule="evenodd" d="M179 783H197V765H179V783Z" fill="#CEFF00"></path>
  <path fill-rule="evenodd" clip-rule="evenodd" d="M89 487H100V476H89V487Z" fill="#CEFF00"></path>
  <path fill-rule="evenodd" clip-rule="evenodd" d="M69 508H87V490H69V508Z" fill="#CEFF00"></path>
  <path fill-rule="evenodd" clip-rule="evenodd" d="M0 588H18V570H0V588Z" fill="#DCDCDC"></path>
  <path fill-rule="evenodd" clip-rule="evenodd" d="M368 851H383V836H368V851Z" fill="#00B4FF"></path>
  <path fill-rule="evenodd" clip-rule="evenodd" d="M149 964H160V953H149V964Z" fill="#00B4FF"></path>
  <path fill-rule="evenodd" clip-rule="evenodd" d="M117 996H138V975H117V996Z" fill="#00B4FF"></path>
  <path fill-rule="evenodd" clip-rule="evenodd" d="M1158 779H1173V764H1158V779Z" fill="#969696"></path>
  <path fill-rule="evenodd" clip-rule="evenodd" d="M37 614H55V596H37V614Z" fill="#394CFF"></path>
  <path fill-rule="evenodd" clip-rule="evenodd" d="M225 952H240V937H225V952Z" fill="#394CFF"></path>
  <path fill-rule="evenodd" clip-rule="evenodd" d="M233 1177H243V1167H233V1177Z" fill="#DCDCDC"></path>
  <path fill-rule="evenodd" clip-rule="evenodd" d="M487 1322H505V1304H487V1322Z" fill="#394CFF"></path>
  <path fill-rule="evenodd" clip-rule="evenodd" d="M529 1276H543V1262H529V1276Z" fill="#394CFF"></path>
  <path fill-rule="evenodd" clip-rule="evenodd" d="M337 1301H366V1272H337V1301Z" fill="white"></path>
  <path fill-rule="evenodd" clip-rule="evenodd" d="M445 1312H461V1296H445V1312Z" fill="#00B4FF"></path>
  <path fill-rule="evenodd" clip-rule="evenodd" d="M449 1273H480V1242H449V1273Z" fill="#00B4FF"></path>
  <path fill-rule="evenodd" clip-rule="evenodd" d="M323 1470H354V1439H323V1470Z" fill="#00B4FF"></path>
  <path fill-rule="evenodd" clip-rule="evenodd" d="M612 1541H642V1511H612V1541Z" fill="#394CFF"></path>
  <path fill-rule="evenodd" clip-rule="evenodd" d="M593 1457H612V1438H593V1457Z" fill="#00B4FF"></path>
  <path fill-rule="evenodd" clip-rule="evenodd" d="M427 1297H447V1277H427V1297Z" fill="#00B4FF"></path>
  <path fill-rule="evenodd" clip-rule="evenodd" d="M520 1400H540V1380H520V1400Z" fill="#00B4FF"></path>
  <path fill-rule="evenodd" clip-rule="evenodd" d="M503 1341H523V1321H503V1341Z" fill="#DCDCDC"></path>
  <path fill-rule="evenodd" clip-rule="evenodd" d="M571 1255H587V1239H571V1255Z" fill="#DCDCDC"></path>
  <path fill-rule="evenodd" clip-rule="evenodd" d="M486 1379H500V1365H486V1379Z" fill="#394CFF"></path>
  <path fill-rule="evenodd" clip-rule="evenodd" d="M191 1127H219V1099H191V1127Z" fill="#969696"></path>
  <path fill-rule="evenodd" clip-rule="evenodd" d="M455 1464H475V1444H455V1464Z" fill="#394CFF"></path>
  <path fill-rule="evenodd" clip-rule="evenodd" d="M366 1129H394V1101H366V1129Z" fill="#969696"></path>
  <path fill-rule="evenodd" clip-rule="evenodd" d="M130 1526H158V1498H130V1526Z" fill="#394CFF"></path>
  <path fill-rule="evenodd" clip-rule="evenodd" d="M160 1435H174V1421H160V1435Z" fill="#969696"></path>
  <path fill-rule="evenodd" clip-rule="evenodd" d="M313 1125H333V1105H313V1125Z" fill="#394CFF"></path>
  <path fill-rule="evenodd" clip-rule="evenodd" d="M260 1049H280V1029H260V1049Z" fill="#394CFF"></path>
  <path fill-rule="evenodd" clip-rule="evenodd" d="M342 1154H362V1134H342V1154Z" fill="#394CFF"></path>
  <path fill-rule="evenodd" clip-rule="evenodd" d="M226 1270H250V1246H226V1270Z" fill="#394CFF"></path>
  <path fill-rule="evenodd" clip-rule="evenodd" d="M166 1190H190V1166H166V1190Z" fill="#394CFF"></path>
  <path fill-rule="evenodd" clip-rule="evenodd" d="M146 1111H170V1087H146V1111Z" fill="#394CFF"></path>
  <path fill-rule="evenodd" clip-rule="evenodd" d="M221 1332H254V1299H221V1332Z" fill="#00B4FF"></path>
  <path fill-rule="evenodd" clip-rule="evenodd" d="M124 1209H138V1195H124V1209Z" fill="#394CFF"></path>
  <path fill-rule="evenodd" clip-rule="evenodd" d="M121 1399H135V1385H121V1399Z" fill="#CEFF00"></path>
  <path fill-rule="evenodd" clip-rule="evenodd" d="M254 1299H278V1275H254V1299Z" fill="#00B4FF"></path>
  <path fill-rule="evenodd" clip-rule="evenodd" d="M170 1269H192V1247H170V1269Z" fill="#00B4FF"></path>
  <path fill-rule="evenodd" clip-rule="evenodd" d="M151 1342H171V1322H151V1342Z" fill="#00B4FF"></path>
  <path fill-rule="evenodd" clip-rule="evenodd" d="M203 1293H215V1281H203V1293Z" fill="#969696"></path>
  <path fill-rule="evenodd" clip-rule="evenodd" d="M26 1390H38V1378H26V1390Z" fill="#00B4FF"></path>
  <path fill-rule="evenodd" clip-rule="evenodd" d="M313 1411H333V1391H313V1411Z" fill="#394CFF"></path>
  <path fill-rule="evenodd" clip-rule="evenodd" d="M389 1444H409V1424H389V1444Z" fill="#394CFF"></path>
  <path fill-rule="evenodd" clip-rule="evenodd" d="M330 1371H346V1355H330V1371Z" fill="#00B4FF"></path>
  <path fill-rule="evenodd" clip-rule="evenodd" d="M347 1405H370V1382H347V1405Z" fill="#00B4FF"></path>
  <path fill-rule="evenodd" clip-rule="evenodd" d="M228 1493H244V1477H228V1493Z" fill="#CEFF00"></path>
  <path fill-rule="evenodd" clip-rule="evenodd" d="M279 1544V1559.92L298 1560V1544H279Z" fill="#DCDCDC"></path>
  <path fill-rule="evenodd" clip-rule="evenodd" d="M391 1496H411V1476H391V1496Z" fill="#DCDCDC"></path>
  <path fill-rule="evenodd" clip-rule="evenodd" d="M317 1503H331V1489H317V1503Z" fill="#CEFF00"></path>
  <path fill-rule="evenodd" clip-rule="evenodd" d="M369 1183H391V1161H369V1183Z" fill="#394CFF"></path>
  <path fill-rule="evenodd" clip-rule="evenodd" d="M315 1180H331V1164H315V1180Z" fill="#394CFF"></path>
  <path fill-rule="evenodd" clip-rule="evenodd" d="M343 1210H361V1192H343V1210Z" fill="#00B4FF"></path>
  <path fill-rule="evenodd" clip-rule="evenodd" d="M425 1213H449V1189H425V1213Z" fill="#00B4FF"></path>
  <path fill-rule="evenodd" clip-rule="evenodd" d="M455 1182H475V1162H455V1182Z" fill="#969696"></path>
  <path fill-rule="evenodd" clip-rule="evenodd" d="M815 1486H843V1458H815V1486Z" fill="#394CFF"></path>
  <path fill-rule="evenodd" clip-rule="evenodd" d="M430 1088H458V1060H430V1088Z" fill="#394CFF"></path>
  <path fill-rule="evenodd" clip-rule="evenodd" d="M404 1234H414V1224H404V1234Z" fill="#00B4FF"></path>
  <path fill-rule="evenodd" clip-rule="evenodd" d="M288 1351H302V1337H288V1351Z" fill="#00B4FF"></path>
  <path fill-rule="evenodd" clip-rule="evenodd" d="M58 1467H68V1457H58V1467Z" fill="#DCDCDC"></path>
  <path fill-rule="evenodd" clip-rule="evenodd" d="M256 1383H277V1362H256V1383Z" fill="#00B4FF"></path>
  <path fill-rule="evenodd" clip-rule="evenodd" d="M232 1407H244V1395H232V1407Z" fill="#394CFF"></path>
  <path fill-rule="evenodd" clip-rule="evenodd" d="M199 1383H220V1362H199V1383Z" fill="#00B4FF"></path>
  <path fill-rule="evenodd" clip-rule="evenodd" d="M256 1438H276V1418H256V1438Z" fill="#394CFF"></path>
  <path fill-rule="evenodd" clip-rule="evenodd" d="M397 1356H421V1332H397V1356Z" fill="#00B4FF"></path>
  <path fill-rule="evenodd" clip-rule="evenodd" d="M512 1511H536V1487H512V1511Z" fill="#00B4FF"></path>
  <path fill-rule="evenodd" clip-rule="evenodd" d="M427 1382H447V1362H427V1382Z" fill="#394CFF"></path>
  <path fill-rule="evenodd" clip-rule="evenodd" d="M456 1360H480V1336H456V1360Z" fill="#00B4FF"></path>
  <path fill-rule="evenodd" clip-rule="evenodd" d="M539 1412H553V1398H539V1412Z" fill="#CEFF00"></path>
  <path fill-rule="evenodd" clip-rule="evenodd" d="M427 1438H447V1418H427V1438Z" fill="#969696"></path>
  <path fill-rule="evenodd" clip-rule="evenodd" d="M470 1048H482V1036H470V1048Z" fill="#DCDCDC"></path>
  <path fill-rule="evenodd" clip-rule="evenodd" d="M539 1080H559V1060H539V1080Z" fill="#394CFF"></path>
  <path fill-rule="evenodd" clip-rule="evenodd" d="M559 1360H579V1340H559V1360Z" fill="#DCDCDC"></path>
  <path fill-rule="evenodd" clip-rule="evenodd" d="M252 1215H280V1187H252V1215Z" fill="#00B4FF"></path>
  <path fill-rule="evenodd" clip-rule="evenodd" d="M297 1017H315V999H297V1017Z" fill="#00B4FF"></path>
  <path fill-rule="evenodd" clip-rule="evenodd" d="M67 1255H80V1242H67V1255Z" fill="#969696"></path>
  <path fill-rule="evenodd" clip-rule="evenodd" d="M361 1055H372V1044H361V1055Z" fill="#969696"></path>
  <path fill-rule="evenodd" clip-rule="evenodd" d="M199 1211H219V1191H199V1211Z" fill="#00B4FF"></path>
  <path fill-rule="evenodd" clip-rule="evenodd" d="M82 1178H102V1158H82V1178Z" fill="#394CFF"></path>
  <path fill-rule="evenodd" clip-rule="evenodd" d="M256 1154H276V1134H256V1154Z" fill="#CEFF00"></path>
  <path fill-rule="evenodd" clip-rule="evenodd" d="M97 1294H117V1274H97V1294Z" fill="#CEFF00"></path>
  <path fill-rule="evenodd" clip-rule="evenodd" d="M431 1150H443V1138H431V1150Z" fill="#DCDCDC"></path>
  <path fill-rule="evenodd" clip-rule="evenodd" d="M483 1211H503V1191H483V1211Z" fill="#394CFF"></path>
  <path fill-rule="evenodd" clip-rule="evenodd" d="M283 1241H307V1217H283V1241Z" fill="#00B4FF"></path>
  <path fill-rule="evenodd" clip-rule="evenodd" d="M1113 844H1137V820H1113V844Z" fill="#CEFF00"></path>
  <path fill-rule="evenodd" clip-rule="evenodd" d="M459 1119H483V1095H459V1119Z" fill="#00B4FF"></path>
  <path fill-rule="evenodd" clip-rule="evenodd" d="M6 1082H44V1044H6V1082Z" fill="#394CFF"></path>
  <path fill-rule="evenodd" clip-rule="evenodd" d="M1080 1560H1235V1482H1080V1560Z" fill="#394CFF"></path>
</svg>
